<svg width="49" height="48" viewBox="0 0 49 48" xmlns="http://www.w3.org/2000/svg">
<path d="M27.2293 26.9797C25.3436 28.9254 25.2065 31.3511 25.0436 36.6654C29.9979 36.6654 33.4179 36.6483 35.1836 34.934C36.8979 33.1683 36.915 29.5854 36.915 24.794C31.6008 24.9654 29.175 25.094 27.2293 26.9797ZM12.915 24.794C12.915 29.5854 12.9322 33.1683 14.6465 34.934C16.4122 36.6483 19.8322 36.6654 24.7865 36.6654C24.615 31.3511 24.4865 28.9254 22.6008 26.9797C20.655 25.094 18.2293 24.9568 12.915 24.794ZM24.7865 12.6654C19.8408 12.6654 16.4122 12.6825 14.6465 14.3968C12.9322 16.1625 12.915 19.7454 12.915 24.5368C18.2293 24.3654 20.655 24.2368 22.6008 22.3511C24.4865 20.4054 24.6236 17.9797 24.7865 12.6654ZM27.2293 22.3511C25.3436 20.4054 25.2065 17.9797 25.0436 12.6654C29.9979 12.6654 33.4179 12.6825 35.1836 14.3968C36.8979 16.1625 36.915 19.7454 36.915 24.5368C31.6008 24.3654 29.175 24.2368 27.2293 22.3511Z"/>
</svg>
