<svg width="1440" height="530" viewBox="0 0 1440 530" fill="none" xmlns="http://www.w3.org/2000/svg">
<g clip-path="url(#clip0_4_11755)">
<path d="M543.001 375.5C433.769 419.974 334.001 593.5 334.001 593.5H1440.5V11.9996C1440.5 11.9996 1350.05 75.7927 1300 125.5C1225.6 199.395 1219.95 273.071 1140.5 341.5C1073.1 399.551 1028.77 431.395 943.001 455C789.445 497.26 690.508 315.441 543.001 375.5Z" fill="url(#paint0_radial_4_11755)"/>
<path opacity="0.5" d="M2344.6 -146.36C2345.18 -145.773 2330.51 -136.44 2320.75 -130.653C2308.35 -123.303 2303.87 -117.03 2296.04 -109.074C2284.22 -97.054 2275.69 -92.049 2265.28 -78.7833C2250.07 -59.3915 2232.53 -29.1336 2229.33 -23.5081C2226.13 -17.8825 2206.16 -0.709849 2201.18 3.38144C2196.21 7.47274 2166.09 24.5382 2144.96 19.1555C2118.51 12.4175 2103.29 9.75264 2077.59 0.544769C2064.2 -4.25473 2057.38 -8.84702 2043.79 -13.0676C2024.68 -19.0034 2017.35 -21.5936 1993.44 -22.5473C1969.54 -23.5011 1955.57 -22.0411 1929.34 -14.7525C1929.34 -14.7525 1908.33 -10.5079 1869.12 8.92534C1829.9 28.3586 1769.69 57.5083 1769.69 57.5083C1769.69 57.5083 1677.14 91.5148 1667.34 90.6246C1657.55 89.7344 1594.42 118.55 1562.58 139.721C1543.61 152.343 1529.11 151.683 1506.26 149.205C1479.24 146.275 1457.18 140.998 1418.77 163.824C1381.34 186.062 1367.71 211.724 1336.65 244.37C1313.5 268.689 1305.39 286.693 1283.27 313.616C1263.32 337.906 1239.33 342.607 1219.28 375.958C1206.81 396.709 1200.6 411.081 1168.09 420.61C1151.22 425.554 1128.1 439.495 1128.1 439.495C1128.1 439.495 1105.92 442.262 1091.46 446.781C1081.04 450.035 1053.4 462.534 1053.4 462.534L1003.81 489.15C1003.81 489.15 944.486 504.032 938.297 505.412C932.107 506.792 886.005 526.955 861 505.412C835.995 483.869 788.944 499.546 744 489.15C701.426 479.303 677.176 457.126 648.5 456C621.71 453.063 580.008 479.466 552.5 476.5C552.5 476.5 510.201 469.523 483 467C448.392 463.79 439.011 471.122 404.5 467C371.628 463.073 322 447.5 322 447.5C322 447.5 263.39 425.117 226.5 433C205.937 437.394 195.903 445.007 177.092 454.405C114.059 485.894 33.1121 563.14 33.1121 563.14" stroke="#05E3B8" stroke-width="2"/>
<path opacity="0.5" d="M2384.45 -38.2022C2343.03 4.31112 2333.78 33.8551 2334 86.4484C2336.21 87.2594 2313.88 132.988 2277.35 153.185C2232.35 178.068 2203.86 191.437 2152.54 195.106C2127.07 196.927 2081.03 181.773 2081.07 177.944C2081.11 174.114 2013.48 138.002 2012.01 136.804C2010.55 135.606 1962.45 119.84 1927.69 123.104C1894 126.267 1879.56 130.069 1850.36 139.215C1803.17 153.994 1778.01 166.927 1729.79 177.879C1699.5 184.759 1682.03 186.218 1651.37 191.239C1631.41 194.509 1621.25 199.226 1604.2 209.785C1587.11 220.369 1576.93 227.043 1557.15 230.662C1538.02 234.163 1506.35 234.684 1497.61 235.808C1488.87 236.933 1445.72 252.135 1427.83 275.153C1411.56 296.085 1405.87 307.754 1392.39 329.581C1382.01 346.393 1363.12 348.577 1346.27 358.83C1327.59 370.199 1315.74 373.604 1296.62 383.115C1274.27 394.235 1237.84 423.885 1239.11 425.574C1240.39 427.264 1183.33 469.981 1137.7 490.856C1102.76 506.835 1086.49 521.874 1053.26 543.11C1024.48 561.496 1008.22 571.411 978.962 585.024C953.59 596.828 938.824 603.021 912.646 611.095C888.403 618.572 874.411 624.288 849.096 628.139C822.146 632.238 805.793 630.245 780.98 625.538C753.428 620.311 737.907 610.411 706.915 607.806C677.147 605.304 671.608 600.834 632.024 591.987C592.44 583.14 570.224 575.819 529.704 572.658C497.531 570.149 447.104 573.369 447.104 573.369C447.104 573.369 392.543 579.688 358.049 583.765C323.554 587.841 305.831 552.1 269.249 553.672C238.602 554.99 195.476 580.643 195.476 580.643" stroke="#05E3B8" stroke-width="2"/>
<path opacity="0.5" d="M2364.91 -87.9034C2363.64 -90.9352 2323.45 -59.8787 2306.82 -28.7023C2290.57 1.7666 2289.9 23.5684 2269.64 51.5298C2247.52 82.0676 2233.43 103.563 2197.87 116.11C2172.87 124.934 2156.22 125.34 2130.13 120.608C2106.35 116.296 2073.2 96.3481 2073.2 96.3481C2073.2 96.3481 2042.84 81.584 2022.26 75.2674C1997.34 67.6222 1982.69 63.991 1956.65 63.112C1911.4 61.5845 1887.13 76.4343 1843.73 89.3233C1800.51 102.16 1778.17 115.02 1735.24 128.813C1696.24 141.345 1671.78 140.841 1634.32 157.421C1615.56 165.724 1606.1 172.538 1587.9 181.996C1572.29 190.11 1564.92 198.529 1547.78 202.512C1527.76 207.164 1515.67 197.229 1495.23 199.454C1467.81 202.439 1453.1 210.104 1428.48 222.536C1387.88 243.032 1385.23 276.438 1358.36 309.394C1348.6 321.359 1340.6 325.778 1328.04 334.752C1312.68 345.73 1301.95 348.576 1286.26 359.082C1267.85 371.416 1257.97 379.153 1241.56 394.05C1228.99 405.454 1225.33 415.816 1211.07 425.008C1188.64 439.471 1174.73 447.302 1150.53 459.877C1120.26 475.609 1101.34 480.583 1070.73 495.994C1033.85 514.561 1018.8 536.175 964.572 557.492C938.936 567.57 921.84 571.971 891.848 573.434C865.587 574.715 849.572 570.55 823.095 563.308C802.022 557.544 791.361 547.853 768.877 541.934C724.721 530.309 699.179 526.605 653.903 520.729C618.661 516.155 598.898 511.585 562.639 507.595C533.329 504.369 516.56 504.421 487.145 506.443C458.934 508.383 443.481 512.839 415.543 517.201C383.329 522.23 365.22 536.449 333.14 530.624C305.791 525.658 297.212 502.007 269.643 498.464C237.804 494.372 219.328 506.383 190.393 520.283C160.216 534.781 121.367 571.125 121.367 571.125" stroke="#05E3B8" stroke-width="2"/>
<path opacity="0.5" d="M377.368 643.118C413.545 640.052 434.633 636.474 473.528 644.595C512.422 652.716 509.845 656.854 533.396 664.267C556.947 671.68 569.61 686.57 593.022 697.39C616.434 708.21 631.251 708.986 654.943 716.255C673.439 721.93 684.942 722.373 704.285 721.211C771.684 717.162 806.37 697.575 855.661 674.269C904.952 650.962 957.815 630.467 1018.08 593.131C1087.65 550.03 1189.11 488.286 1198.92 476.47C1208.73 464.654 1335.55 384.13 1344.51 384.667C1353.47 385.204 1400.28 351.74 1400.28 351.74C1467.44 272.112 1532.75 262.737 1558.63 268.276C1584.5 273.816 1609.23 252.313 1609.23 252.313C1609.23 252.313 1642.22 219.701 1679.07 235.068C1715.92 250.435 1813.71 208.276 1898.44 180.249C1952.97 176.049 1969.85 184.528 1997.03 201.981C2015.95 218.865 2027.61 227.547 2050.47 241.464C2074.15 255.808 2087.58 257.552 2111.59 258.288C2206.46 240.781 2255.78 221.026 2342.71 183.136C2382.11 155.111 2403.99 139.031 2442.46 109.354" stroke="#05E3B8" stroke-width="2"/>
</g>
<defs>
<radialGradient id="paint0_radial_4_11755" cx="0" cy="0" r="1" gradientUnits="userSpaceOnUse" gradientTransform="translate(956.411 1008.45) rotate(-129.625) scale(716.745 632.306)">
<stop stop-color="#05E3BB"/>
<stop offset="1" stop-color="#37514B"/>
</radialGradient>
<clipPath id="clip0_4_11755">
<rect width="1440" height="530" fill="white"/>
</clipPath>
</defs>
</svg>
