<svg width="1920" height="486" viewBox="0 0 1920 486" fill="none" xmlns="http://www.w3.org/2000/svg">
<g clip-path="url(#clip0_4_11732)">
<path d="M781.161 414.826C661.915 459.336 553 633 553 633H1970V9C1970 9 1726.56 67.0464 1622.85 177.134C1548.02 256.557 1520.18 312.316 1433.44 380.799C1359.85 438.897 1311.47 470.766 1217.83 494.389C1050.2 536.683 942.192 354.719 781.161 414.826Z" fill="url(#paint0_radial_4_11732)"/>
<path opacity="0.5" d="M2747.18 -107C2747.8 -106.485 2731.79 -98.2987 2721.14 -93.2233C2707.61 -86.7757 2702.72 -81.2738 2694.17 -74.2952C2681.27 -63.7523 2671.96 -59.3624 2660.6 -47.7266C2643.99 -30.7175 2624.84 -4.1775 2621.35 0.756877C2617.86 5.69125 2596.06 20.7538 2590.63 24.3424C2585.19 27.931 2552.32 42.8996 2529.25 38.1783C2500.38 32.2683 2483.76 29.9307 2455.71 21.8543C2441.09 17.6445 2433.65 13.6165 2418.82 9.9145C2397.96 4.70798 2389.96 2.4361 2363.86 1.59956C2337.77 0.762971 2322.51 2.0436 2293.89 8.43665C2293.89 8.43665 2270.96 12.1597 2228.15 29.2051C2185.34 46.2506 2119.61 71.8186 2119.61 71.8186C2119.61 71.8186 2018.59 101.647 2007.89 100.866C1997.2 100.085 1928.29 125.36 1893.54 143.929C1872.83 155.001 1857 154.422 1832.06 152.249C1802.56 149.678 1778.48 145.049 1736.55 165.071C1695.7 184.577 1680.82 207.086 1646.91 235.72C1621.65 257.051 1612.79 272.843 1588.65 296.458C1566.87 317.763 1540.68 321.887 1518.8 351.14C1505.18 369.341 1498.41 381.947 1462.92 390.305C1444.51 394.642 1419.27 406.87 1419.27 406.87C1419.27 406.87 1395.06 409.297 1379.27 413.261C1367.9 416.115 1337.73 427.078 1337.73 427.078L1283.6 450.424C1283.6 450.424 1218.84 463.477 1212.08 464.688C1205.33 465.898 1155 483.583 1127.71 464.688C1100.41 445.792 1049.05 459.542 999.992 450.424C953.519 441.787 927.048 422.335 895.746 421.347C866.502 418.77 820.981 441.93 790.954 439.328C790.954 439.328 744.781 433.208 715.089 430.995C677.312 428.179 667.072 434.611 629.4 430.995C593.517 427.551 539.345 413.891 539.345 413.891C539.345 413.891 475.367 394.259 435.099 401.173C412.652 405.027 401.7 411.705 381.166 419.948C312.361 447.568 224 515.322 224 515.322M2790.67 -12.1319C2745.46 25.1577 2735.37 51.0716 2735.6 97.2027C2738.02 97.9139 2713.64 138.024 2673.77 155.739C2624.65 177.565 2593.54 189.291 2537.53 192.509C2509.73 194.107 2459.47 180.814 2459.51 177.456C2459.56 174.097 2385.73 142.422 2384.13 141.371C2382.53 140.321 2330.03 126.491 2292.09 129.354C2255.31 132.129 2239.54 135.463 2207.67 143.486C2156.16 156.449 2128.7 167.792 2076.06 177.399C2043 183.434 2023.93 184.713 1990.46 189.117C1968.67 191.986 1957.58 196.123 1938.97 205.384C1920.31 214.669 1909.2 220.523 1887.62 223.697C1866.73 226.767 1832.16 227.224 1822.62 228.211C1813.08 229.197 1765.98 242.531 1746.45 262.721C1728.69 281.081 1722.48 291.316 1707.77 310.461C1696.43 325.208 1675.81 327.123 1657.42 336.117C1637.03 346.088 1624.09 349.075 1603.22 357.418C1578.82 367.171 1539.06 393.178 1540.45 394.66C1541.84 396.142 1479.56 433.61 1429.74 451.92C1391.61 465.936 1373.85 479.127 1337.57 497.753C1306.16 513.881 1288.41 522.577 1256.47 534.517C1228.78 544.871 1212.66 550.303 1184.08 557.385C1157.62 563.944 1142.35 568.957 1114.71 572.334C1085.29 575.93 1067.44 574.182 1040.36 570.053C1010.28 565.469 993.341 556.785 959.51 554.5C927.016 552.305 920.97 548.385 877.761 540.625C834.551 532.865 810.301 526.443 766.071 523.671C730.951 521.47 675.905 524.295 675.905 524.295C675.905 524.295 616.349 529.837 578.695 533.413C541.041 536.988 521.695 505.639 481.763 507.018C448.309 508.174 401.234 530.675 401.234 530.675M2769.35 -55.7261C2767.96 -58.3854 2724.09 -31.1447 2705.94 -3.79909C2688.2 22.926 2687.47 42.049 2665.36 66.5747C2641.21 93.3603 2625.82 112.215 2587.01 123.22C2559.72 130.959 2541.55 131.316 2513.07 127.165C2487.11 123.383 2450.92 105.886 2450.92 105.886C2450.92 105.886 2417.78 92.9361 2395.31 87.3957C2368.12 80.6898 2352.12 77.5048 2323.7 76.7338C2274.31 75.394 2247.81 88.4192 2200.44 99.7245C2153.26 110.984 2128.87 122.264 2082.01 134.362C2039.44 145.354 2012.74 144.912 1971.85 159.455C1951.38 166.737 1941.05 172.714 1921.18 181.011C1904.13 188.128 1896.09 195.512 1877.38 199.005C1855.53 203.086 1842.33 194.372 1820.03 196.323C1790.73 198.886 1774.72 205.381 1748.86 215.879L1747.16 216.569C1702.84 234.546 1699.94 263.848 1670.61 292.755C1659.97 303.249 1651.23 307.126 1637.52 314.997C1620.75 324.626 1609.04 327.123 1591.92 336.338C1571.81 347.156 1561.03 353.942 1543.12 367.009C1529.4 377.011 1525.4 386.101 1509.84 394.163C1485.35 406.849 1470.17 413.718 1443.75 424.748C1410.71 438.547 1390.05 442.909 1356.64 456.427C1316.39 472.713 1299.96 491.671 1240.76 510.369C1212.78 519.208 1194.12 523.068 1161.38 524.352C1132.71 525.475 1115.23 521.822 1086.33 515.47C1063.33 510.414 1051.69 501.914 1027.15 496.722C978.948 486.526 951.066 483.277 901.643 478.123C863.175 474.111 841.601 470.103 802.022 466.602C770.027 463.773 751.723 463.818 719.614 465.592C688.82 467.294 671.951 471.202 641.455 475.028C606.29 479.439 586.523 491.911 551.505 486.802C521.651 482.446 512.287 461.701 482.192 458.593C447.438 455.004 427.27 465.539 395.686 477.732C362.745 490.448 320.338 522.327 320.338 522.327M599.784 585.474C639.274 582.784 662.293 579.645 704.75 586.769C747.206 593.892 744.392 597.522 770.1 604.024C795.808 610.526 809.631 623.586 835.187 633.077C860.744 642.568 876.918 643.248 902.779 649.624C922.969 654.602 935.525 654.99 956.64 653.971C1030.21 650.42 1068.07 633.239 1121.88 612.796C1175.68 592.354 1233.39 574.377 1299.17 541.629C1375.12 503.823 1485.87 449.666 1496.57 439.302C1507.28 428.938 1645.71 358.307 1655.49 358.779C1665.28 359.25 1716.38 329.897 1716.38 329.897C1789.69 260.053 1860.98 251.83 1889.23 256.689C1917.47 261.548 1944.46 242.687 1944.46 242.687C1944.46 242.687 1980.47 214.082 2020.7 227.561C2060.92 241.04 2167.66 204.061 2260.16 179.478C2319.68 175.794 2338.11 183.231 2367.78 198.539C2388.43 213.349 2401.15 220.965 2426.11 233.171C2451.96 245.753 2466.62 247.282 2492.83 247.928C2596.38 232.572 2650.22 215.244 2745.12 182.01C2788.12 157.429 2812 143.324 2854 117.294" stroke="#05E3B8" stroke-width="2"/>
</g>
<defs>
<radialGradient id="paint0_radial_4_11732" cx="0" cy="0" r="1" gradientUnits="userSpaceOnUse" gradientTransform="translate(1350.07 1078.27) rotate(-134.658) scale(832.84 747.796)">
<stop stop-color="#05E3BB"/>
<stop offset="1" stop-color="#37514B"/>
</radialGradient>
<clipPath id="clip0_4_11732">
<rect width="1920" height="486" fill="white"/>
</clipPath>
</defs>
</svg>
