<svg width="32" height="32" viewBox="0 0 32 32" fill="none" xmlns="http://www.w3.org/2000/svg"><rect width="32" height="32" rx="5" fill="white"/><path d="M24.816 17.858C24.0389 17.0121 23.0893 16.3233 21.9669 15.7855C20.8445 15.2477 19.3891 14.6556 17.6069 14.0091C15.5349 13.2477 13.9993 12.571 13.0065 11.9789C12.0136 11.3867 11.4771 10.6556 11.3908 9.77946C11.2736 8.59517 11.693 7.61631 12.6426 6.8429C13.5923 6.06949 14.9429 5.67674 16.7004 5.67674C19.2041 5.67674 21.3934 6.98792 23.2619 9.61027L25.2045 8.17221C24.4275 7.1571 23.2743 6.37764 21.751 5.82779C20.2278 5.27794 18.569 5 16.7868 5C15.1772 5 13.6602 5.22356 12.2356 5.67674C10.8111 6.12991 9.66407 6.79456 8.80688 7.68882C7.94352 8.57704 7.51184 9.64048 7.51184 10.8792C7.51184 12.0937 7.90036 13.1269 8.67738 13.9909C9.4544 14.8489 10.3979 15.5498 11.508 16.0876C12.6118 16.6254 14.061 17.2175 15.8494 17.864C17.977 18.6556 19.5433 19.3444 20.5547 19.9366C21.5599 20.5287 22.0964 21.3021 22.1519 22.2628C22.2382 23.4169 21.7326 24.3776 20.641 25.139C19.5433 25.9003 18.1681 26.281 16.4969 26.281C14.9429 26.281 13.543 25.8943 12.2911 25.1208C11.0393 24.3474 9.99708 23.3082 9.15839 22.0091L7 23.4471C7.89419 24.577 9.19539 25.4471 10.9098 26.0695C12.6241 26.6918 14.5112 27 16.5894 27C19.1795 27 21.3934 26.4683 23.2373 25.4169C25.0811 24.3656 26 22.855 26 20.9094C25.9815 19.719 25.593 18.7039 24.816 17.858Z" fill="#37514B"/></svg>