<svg width="49" height="48" viewBox="0 0 49 48" xmlns="http://www.w3.org/2000/svg"><path d="M36.4225 18.0973C36.1459 17.0691 35.3353 16.2586 34.3073 15.9818C32.4292 15.4679 24.9167 15.4679 24.9167 15.4679C24.9167 15.4679 17.4045 15.4679 15.5265 15.9623C14.5182 16.2388 13.6878 17.0693 13.4112 18.0973C12.917 19.9752 12.917 23.8698 12.917 23.8698C12.917 23.8698 12.917 27.784 13.4112 29.6423C13.6881 30.6704 14.4984 31.4809 15.5266 31.7577C17.4243 32.2717 24.917 32.2717 24.917 32.2717C24.917 32.2717 32.4292 32.2717 34.3073 31.7774C35.3354 31.5006 36.1459 30.6901 36.4228 29.6621C36.9169 27.784 36.9169 23.8896 36.9169 23.8896C36.9169 23.8896 36.9367 19.9752 36.4225 18.0973ZM22.5249 27.4678V20.2719L28.7719 23.8698L22.5249 27.4678Z"/></svg>