<svg width="767" height="498" viewBox="0 0 767 498" fill="none" xmlns="http://www.w3.org/2000/svg"><g clip-path="url(#clip0_8_32176)"><path d="M-102.999 343.5C-212.231 387.974 -311.999 561.5 -311.999 561.5H794.501V-20.0002C794.501 -20.0002 704.045 43.7928 654.001 93.4998C579.604 167.395 558.8 248.483 454 252C305 257 367.769 327.396 282 351C128.444 393.26 44.5081 283.441 -102.999 343.5Z" fill="url(#paint0_radial_8_32176)"/><path opacity="0.5" d="M1647.7 -251.502C1648.31 -250.808 1633.83 -241.003 1624.17 -234.959C1611.9 -227.28 1607.66 -220.412 1600.09 -211.81C1588.65 -198.816 1580.2 -193.593 1570.27 -179.115C1555.75 -157.951 1539.43 -124.605 1536.46 -118.402C1533.49 -112.199 1514 -93.795 1509.13 -89.4215C1504.27 -85.048 1474.42 -67.292 1452.58 -74.484C1425.24 -83.4868 1409.57 -87.2949 1382.87 -99.055C1368.95 -105.185 1361.75 -110.738 1347.67 -116.223C1327.86 -123.936 1320.25 -127.249 1295.8 -129.571C1271.36 -131.893 1257.18 -130.966 1230.8 -124.077C1230.8 -124.077 1209.58 -120.363 1170.57 -100.399C1131.56 -80.4351 1071.64 -50.5612 1071.64 -50.5612C1071.64 -50.5612 978.96 -16.8692 968.918 -18.386C958.876 -19.9028 895.953 9.44049 864.572 31.7556C845.862 45.0605 831.031 43.5596 807.589 39.5674C779.861 34.8452 757.078 27.7244 719.067 51.5715C682.036 74.8046 669.459 103.15 639.455 138.496C617.104 164.827 609.757 184.789 588.587 214.12C569.487 240.584 545.252 244.661 526.528 281.378C514.879 304.223 486.729 313.184 486.729 313.184C486.729 313.184 459.67 327.417 440.729 329.271C422.404 331.064 412.328 321.233 394 323C372.798 325.044 360.797 332.924 343 342.341C321.616 353.655 307.92 364.184 286.729 384.834C265.539 405.485 241.426 378.526 208.729 396.184C176.032 413.841 154.365 445.873 127.729 420.184C101.094 394.495 93.8242 398.939 47.422 384.834C3.46703 371.473 -22.431 345.106 -51.7514 342.341C-79.2415 337.623 -120.423 365.349 -148.647 360.562C-148.647 360.562 -192.173 350.465 -220.061 346.195C-255.542 340.762 -264.734 348.577 -300.164 342.116C-333.912 335.963 -385.363 315.752 -385.363 315.752C-385.363 315.752 -446.333 287.366 -483.567 294.374C-504.322 298.28 -514.165 306.378 -532.872 316.041C-595.556 348.417 -674.143 431.665 -674.143 431.665" stroke="#05E3B8" stroke-width="2"/><path opacity="0.5" d="M1652.5 -156.056C1651.24 -159.088 1611.05 -128.031 1594.42 -96.8549C1578.17 -66.386 1577.5 -44.5842 1557.24 -16.6228C1535.12 13.915 1521.02 35.4109 1485.47 47.9578C1460.47 56.7811 1443.82 57.1872 1417.73 52.4554C1393.95 48.1437 1360.79 28.1955 1360.79 28.1955C1360.79 28.1955 1330.43 13.4314 1309.85 7.11483C1284.94 -0.530397 1270.29 -4.16163 1244.25 -5.04058C1199 -6.56808 1174.72 8.28173 1131.33 21.1707C1088.11 34.0078 1065.76 46.8672 1022.84 60.6606C983.837 73.1927 959.376 72.6885 921.917 89.2688C903.16 97.5711 893.697 104.385 875.495 113.844C859.88 121.958 852.517 130.376 835.376 134.359C815.357 139.011 803.263 129.076 782.83 131.301C755.406 134.287 740.698 141.952 716.073 154.384C675.477 174.879 672.82 208.285 645.953 241.242C636.199 253.206 628.194 257.626 615.637 266.599C600.275 277.578 589.546 280.424 573.858 290.93C555.442 303.263 545.565 311 529.152 325.898C516.589 337.301 512.927 347.664 498.667 356.855C476.231 371.318 462.323 379.149 438.125 391.725C407.853 407.457 388.931 412.43 358.324 427.841C321.447 446.409 306.392 468.023 252.167 489.339C226.531 499.417 209.435 503.818 179.443 505.281C153.182 506.562 137.167 502.397 110.69 495.155C89.6171 489.392 78.9561 479.7 56.472 473.781C12.3165 462.157 -13.2261 458.452 -58.5021 452.576C-93.7434 448.003 -113.507 443.433 -149.766 439.442C-179.076 436.216 -195.845 436.268 -225.26 438.291C-253.47 440.231 -268.924 444.687 -296.862 449.048C-329.076 454.077 -347.185 468.296 -379.265 462.471C-406.614 457.505 -415.193 433.855 -442.762 430.311C-474.601 426.219 -493.077 438.23 -522.011 452.131C-552.189 466.629 -591.037 502.973 -591.037 502.973" stroke="#05E3B8" stroke-width="2"/><path opacity="0.5" d="M-269 627.642C-232.823 624.576 -211.735 620.998 -172.841 629.119C-133.946 637.24 -136.524 641.378 -112.973 648.791C-89.4215 656.204 -76.758 671.094 -53.346 681.914C-29.934 692.734 -15.1167 693.511 8.57445 700.779C27.071 706.454 38.5736 706.897 57.9172 705.735C125.316 701.686 160.002 682.099 209.293 658.793C258.583 635.487 311.447 614.991 371.712 577.656C441.285 534.554 542.745 472.81 552.552 460.994C562.358 449.178 689.177 368.654 698.139 369.191C707.101 369.728 753.916 336.264 753.916 336.264C821.073 256.636 886.386 247.261 912.261 252.801C938.136 258.34 962.859 236.837 962.859 236.837C962.859 236.837 995.852 204.225 1032.7 219.592C1069.55 234.959 1167.34 192.8 1252.07 164.773C1306.6 160.574 1323.48 169.052 1350.66 186.505C1369.58 203.389 1381.24 212.072 1404.1 225.988C1427.78 240.332 1441.21 242.076 1465.22 242.812C1560.09 225.305 1609.41 205.55 1696.34 167.66C1735.74 139.635 1757.62 123.555 1796.09 93.878" stroke="#05E3B8" stroke-width="2"/><path opacity="0.5" d="M1617.11 -54.7488C1575.68 -12.2354 1566.44 17.3086 1566.65 69.9019C1568.87 70.7129 1546.53 116.442 1510.01 136.638C1465.01 161.522 1436.51 174.891 1385.2 178.56C1359.73 180.381 1313.69 165.226 1313.73 161.397C1313.77 157.568 1246.13 121.455 1244.67 120.258C1243.2 119.06 1195.11 103.294 1160.35 106.557C1126.66 109.721 1112.21 113.522 1083.01 122.668C1035.83 137.447 1010.67 150.38 962.448 161.333C932.158 168.212 914.688 169.671 884.03 174.692C864.064 177.962 853.907 182.679 836.857 193.238C819.766 203.823 809.588 210.497 789.812 214.116C770.682 217.616 739.006 218.138 730.267 219.262C721.527 220.386 678.376 235.588 660.486 258.606C644.217 279.539 638.531 291.207 625.052 313.034C614.669 329.847 595.775 332.03 578.929 342.284C560.251 353.652 548.393 357.057 529.276 366.569C506.926 377.689 471.771 409.028 471.771 409.028C471.771 409.028 415.989 453.434 370.353 474.31C335.42 490.289 319.15 505.327 285.914 526.563C257.138 544.95 240.878 554.864 211.619 568.477C186.246 580.281 171.481 586.474 145.303 594.548C121.059 602.026 107.068 607.741 81.7524 611.592C54.803 615.692 38.4501 613.698 13.6363 608.991C-13.9148 603.764 -29.4358 593.864 -60.4284 591.259C-90.1966 588.757 -95.7357 584.288 -135.32 575.44C-174.904 566.593 -197.119 559.272 -237.639 556.112C-269.812 553.602 -320.24 556.823 -320.24 556.823C-320.24 556.823 -374.8 563.142 -409.295 567.218C-443.789 571.295 -461.513 535.553 -498.094 537.126C-528.741 538.443 -571.867 564.096 -571.867 564.096" stroke="#05E3B8" stroke-width="2"/></g><defs><radialGradient id="paint0_radial_8_32176" cx="0" cy="0" r="1" gradientUnits="userSpaceOnUse" gradientTransform="translate(310.411 976.445) rotate(-129.625) scale(716.745 632.306)"><stop stop-color="#05E3BB"/><stop offset="1" stop-color="#37514B"/></radialGradient><clipPath id="clip0_8_32176"><rect width="767" height="498" fill="white"/></clipPath></defs></svg>