<svg width="1350" height="518" viewBox="0 0 1350 518" fill="none" xmlns="http://www.w3.org/2000/svg"><g clip-path="url(#clip0_5_29026)"><path d="M453.001 363.5C343.769 407.974 244.001 581.5 244.001 581.5H1350.5V-0.000244141C1350.5 -0.000244141 1260.05 63.7928 1210 113.5C1135.6 187.395 1129.95 261.072 1050.5 329.5C983.095 387.551 950.769 397.396 865 421C711.444 463.26 600.508 303.441 453.001 363.5Z" fill="url(#paint0_radial_5_29026)"/><path opacity="0.5" d="M2248.97 -172.685C2249.59 -171.991 2235.1 -162.186 2225.45 -156.142C2213.18 -148.464 2208.93 -141.595 2201.36 -132.994C2189.92 -120 2181.47 -114.777 2171.54 -100.299C2157.02 -79.1345 2140.7 -45.7891 2137.73 -39.586C2134.76 -33.383 2115.27 -14.9787 2110.4 -10.6052C2105.54 -6.23172 2075.69 11.5243 2053.85 4.33229C2026.51 -4.67051 2010.84 -8.47859 1984.14 -20.2387C1970.22 -26.3685 1963.03 -31.9219 1948.94 -37.4063C1929.13 -45.1195 1921.52 -48.4329 1897.07 -50.7549C1872.63 -53.0769 1858.45 -52.1499 1832.07 -45.2605C1832.07 -45.2605 1810.85 -41.5466 1771.84 -21.5827C1732.83 -1.61883 1672.91 28.2551 1672.91 28.2551C1672.91 28.2551 1580.23 61.9471 1570.19 60.4303C1560.15 58.9134 1497.22 88.2568 1465.84 110.572C1447.13 123.877 1432.3 122.376 1408.86 118.384C1381.13 113.661 1358.35 106.541 1320.34 130.388C1283.31 153.621 1270.73 181.966 1240.73 217.313C1218.37 243.644 1211.03 263.605 1189.86 292.937C1170.76 319.4 1146.52 323.477 1127.8 360.194C1116.15 383.039 1088 392 1088 392C1088 392 1052.44 403.697 1042 408.087C1031.56 412.477 1021.52 416.721 1008 421.157C988.869 427.435 975.797 424.319 958 433.735C936.616 445.049 935 456.5 913.81 477.15C892.619 497.8 880.5 474.5 847.803 492.157C815.106 509.814 755.635 524.689 729 499C702.365 473.311 695.095 477.756 648.693 463.651C604.738 450.29 578.84 423.922 549.519 421.157C522.029 416.439 480.847 444.166 452.623 439.378C452.623 439.378 409.098 429.281 381.21 425.011C345.728 419.579 336.537 427.393 301.107 420.932C267.359 414.779 215.908 394.569 215.908 394.569C215.908 394.569 154.938 366.182 117.704 373.19C96.9487 377.097 87.106 385.195 68.3988 394.857C5.71476 427.233 -72.8725 510.481 -72.8725 510.481" stroke="#05E3B8" stroke-width="2"/><path opacity="0.5" d="M2294.45 -50.2022C2253.03 -7.68885 2243.78 21.8552 2244 74.4484C2246.21 75.2594 2223.88 120.988 2187.35 141.185C2142.35 166.068 2113.86 179.437 2062.54 183.106C2037.07 184.927 1991.03 169.773 1991.07 165.944C1991.11 162.114 1923.48 126.002 1922.01 124.804C1920.55 123.606 1872.45 107.84 1837.69 111.104C1804 114.267 1789.56 118.069 1760.36 127.215C1713.17 141.994 1688.01 154.927 1639.79 165.879C1609.5 172.759 1592.03 174.218 1561.37 179.239C1541.41 182.509 1531.25 187.226 1514.2 197.785C1497.11 208.369 1486.93 215.043 1467.15 218.662C1448.02 222.163 1416.35 222.684 1407.61 223.808C1398.87 224.933 1355.72 240.135 1337.83 263.153C1321.56 284.085 1315.87 295.754 1302.39 317.581C1292.01 334.393 1273.12 336.577 1256.27 346.83C1237.59 358.199 1225.74 361.604 1206.62 371.115C1184.27 382.235 1149.11 413.575 1149.11 413.575C1149.11 413.575 1093.33 457.981 1047.7 478.856C1012.76 494.835 996.493 509.874 963.258 531.11C934.482 549.496 918.221 559.411 888.962 573.024C863.59 584.828 848.824 591.021 822.646 599.095C798.403 606.572 784.411 612.288 759.096 616.139C732.146 620.238 715.793 618.245 690.98 613.538C663.428 608.311 647.907 598.411 616.915 595.806C587.147 593.304 581.608 588.834 542.024 579.987C502.44 571.14 480.224 563.819 439.704 560.658C407.531 558.149 357.104 561.369 357.104 561.369C357.104 561.369 302.543 567.688 268.049 571.765C233.554 575.841 215.831 540.1 179.249 541.672C148.602 542.99 105.476 568.643 105.476 568.643" stroke="#05E3B8" stroke-width="2"/><path opacity="0.5" d="M2274.91 -99.9033C2273.64 -102.935 2233.45 -71.8785 2216.82 -40.7022C2200.57 -10.2333 2199.9 11.5685 2179.64 39.53C2157.52 70.0677 2143.43 91.5636 2107.87 104.111C2082.87 112.934 2066.22 113.34 2040.13 108.608C2016.35 104.296 1983.2 84.3483 1983.2 84.3483C1983.2 84.3483 1952.84 69.5841 1932.26 63.2675C1907.34 55.6223 1892.69 51.9911 1866.65 51.1121C1821.4 49.5846 1797.13 64.4344 1753.73 77.3235C1710.51 90.1605 1688.17 103.02 1645.24 116.813C1606.24 129.345 1581.78 128.841 1544.32 145.422C1525.56 153.724 1516.1 160.538 1497.9 169.996C1482.29 178.111 1474.92 186.529 1457.78 190.512C1437.76 195.164 1425.67 185.229 1405.23 187.454C1377.81 190.44 1363.1 198.104 1338.48 210.536C1297.88 231.032 1295.23 264.438 1268.36 297.394C1258.6 309.359 1250.6 313.778 1238.04 322.752C1222.68 333.73 1211.95 336.576 1196.26 347.083C1177.85 359.416 1167.97 367.153 1151.56 382.05C1138.99 393.454 1135.33 403.816 1121.07 413.008C1098.64 427.471 1084.73 435.302 1060.53 447.878C1030.26 463.609 1011.34 468.583 980.729 483.994C943.852 502.561 928.797 524.175 874.572 545.492C848.936 555.57 831.84 559.971 801.848 561.434C775.587 562.715 759.572 558.55 733.095 551.308C712.022 545.544 701.361 535.853 678.877 529.934C634.721 518.309 609.179 514.605 563.903 508.729C528.661 504.155 508.898 499.585 472.639 495.595C443.329 492.369 426.56 492.421 397.145 494.443C368.934 496.383 353.481 500.84 325.543 505.201C293.329 510.23 275.22 524.449 243.14 518.624C215.791 513.658 207.212 490.007 179.643 486.464C147.804 482.372 129.328 494.383 100.393 508.284C70.2161 522.782 31.3675 559.126 31.3675 559.126" stroke="#05E3B8" stroke-width="2"/><path opacity="0.5" d="M287.368 631.118C323.545 628.052 344.633 624.474 383.528 632.595C422.422 640.716 419.845 644.854 443.396 652.267C466.947 659.68 479.61 674.57 503.022 685.39C526.434 696.21 541.251 696.986 564.943 704.255C583.439 709.93 594.942 710.373 614.285 709.211C681.684 705.162 716.37 685.575 765.661 662.269C814.952 638.962 867.815 618.467 928.08 581.132C997.653 538.03 1099.11 476.286 1108.92 464.47C1118.73 452.654 1245.55 372.13 1254.51 372.667C1263.47 373.204 1310.28 339.74 1310.28 339.74C1377.44 260.112 1442.75 250.737 1468.63 256.277C1494.5 261.816 1519.23 240.313 1519.23 240.313C1519.23 240.313 1552.22 207.701 1589.07 223.068C1625.92 238.435 1723.71 196.276 1808.44 168.249C1862.97 164.05 1879.85 172.528 1907.03 189.981C1925.95 206.865 1937.61 215.547 1960.47 229.464C1984.15 243.808 1997.58 245.552 2021.59 246.288C2116.46 228.781 2165.78 209.026 2252.71 171.136C2292.11 143.111 2313.99 127.031 2352.46 97.3539" stroke="#05E3B8" stroke-width="2"/></g><defs><radialGradient id="paint0_radial_5_29026" cx="0" cy="0" r="1" gradientUnits="userSpaceOnUse" gradientTransform="translate(866.411 996.445) rotate(-129.625) scale(716.745 632.306)"><stop stop-color="#05E3BB"/><stop offset="1" stop-color="#37514B"/></radialGradient><clipPath id="clip0_5_29026"><rect width="1350" height="518" fill="white"/></clipPath></defs></svg>