<svg width="49" height="48" viewBox="0 0 49 48" xmlns="http://www.w3.org/2000/svg">
<path fill-rule="evenodd" clip-rule="evenodd" d="M19.615 15.1465C19.615 16.3326 18.7118 17.2925 17.2995 17.2925C15.9422 17.2925 15.0391 16.3326 15.067 15.1465C15.0391 13.9028 15.9422 12.9708 17.3266 12.9708C18.7118 12.9708 19.5879 13.9028 19.615 15.1465ZM15.1806 32.8036V18.9878H19.4743V32.8027H15.1806V32.8036Z"/>
<path fill-rule="evenodd" clip-rule="evenodd" d="M22.9153 23.3969C22.9153 21.6737 22.8585 20.2046 22.8018 18.9896H26.5313L26.7295 20.8823H26.8143C27.3794 20.0063 28.7917 18.6796 31.0801 18.6796C33.9047 18.6796 36.0236 20.5443 36.0236 24.611V32.8054H31.7299V25.149C31.7299 23.3681 31.1089 22.154 29.5551 22.154C28.3681 22.154 27.6624 22.9733 27.3802 23.7637C27.2667 24.0467 27.2108 24.4415 27.2108 24.8381V32.8054H22.917V23.3969H22.9153Z"/>
</svg>
