<svg width="158" height="48" viewBox="0 0 158 48" fill="none" xmlns="http://www.w3.org/2000/svg">
<path d="M1.53074 11.4071C2.96554 8.85685 3.9833 6.37359 4.73297 3.97168C4.61879 4.06259 4.50956 4.15828 4.39537 4.25398C3.6606 6.5267 2.67759 8.86642 1.3123 11.297C-0.90692 15.2444 -0.281369 20.6798 2.96058 26.6128C3.18895 26.8664 3.4223 27.1152 3.66557 27.3592C0.0463021 21.1631 -0.75798 15.4741 1.53074 11.4071Z" fill="#37514B"/>
<path d="M4.36702 11.4356C6.5912 8.05279 7.84727 4.75613 8.57212 1.5791C8.47779 1.62216 8.38346 1.67001 8.28913 1.71307C7.55932 4.80877 6.31814 8.01451 4.1585 11.3064C1.44778 15.4308 2.54001 21.6891 7.15221 28.4691C7.69336 29.2633 8.2792 30.0576 8.90475 30.847C9.06362 30.914 9.21753 30.981 9.3764 31.0432C8.65155 30.1485 7.97635 29.249 7.35577 28.3399C2.80314 21.6413 1.71091 15.4786 4.36702 11.4356Z" fill="#37514B"/>
<path d="M7.1999 11.4594C10.0496 7.70818 11.3901 4.02875 11.971 0.478516C11.8816 0.497654 11.7972 0.512008 11.7078 0.535931C11.122 4.02397 9.79147 7.64598 6.99635 11.3206C4.27073 14.9044 4.97075 20.3015 8.96237 26.512C10.1688 28.3876 11.6284 30.2536 13.2618 32.0383C13.3859 32.0527 13.51 32.067 13.6342 32.0814C11.9362 30.2441 10.422 28.3206 9.17585 26.3828C5.24381 20.2584 4.53883 14.9618 7.1999 11.4594Z" fill="#37514B"/>
<path d="M23.2887 19.292C23.2887 18.3542 22.976 17.5503 22.3504 16.8805C22.2759 16.7991 22.1965 16.7274 22.1171 16.6556C21.6355 14.4164 22.3306 12.7178 24.2072 11.603C26.5903 10.1867 28.2634 8.69867 29.3904 7.17236C29.3407 7.10059 29.2861 7.02403 29.2315 6.95226C28.1244 8.49293 26.4661 9.98097 24.0781 11.402C22.2263 12.5025 21.4617 14.2011 21.8142 16.3733C21.3029 15.9331 20.717 15.5551 20.0567 15.2441C19.8184 15.1341 19.5603 15.0192 19.2872 14.8996C19.4907 13.2776 20.4092 12.2393 21.3724 11.5838C24.5845 9.40202 26.4314 7.11494 27.3399 4.78001C27.2704 4.71303 27.2009 4.65561 27.1314 4.58862C26.2527 6.92834 24.4356 9.21542 21.2334 11.3877C19.9674 12.2489 19.2375 13.3972 19.0489 14.7991C18.3985 14.5264 17.6488 14.2346 16.8048 13.9283C17.1027 13.0623 17.6488 12.2537 18.5425 11.5599C19.3219 10.957 20.0021 10.3494 20.6177 9.74173C20.7816 9.93791 20.9454 10.1341 21.0993 10.3542L22.6632 9.21542C22.4298 8.91877 22.1568 8.64125 21.839 8.39724C23.3781 6.50728 24.237 4.58384 24.5994 2.65561C24.52 2.60776 24.4405 2.55992 24.3611 2.51207C24.0136 4.4403 23.1746 6.36374 21.6405 8.24891C21.144 7.89484 20.5631 7.59819 19.883 7.35417C19.739 7.30154 19.59 7.26805 19.4461 7.2202C20.6972 5.20106 21.3227 3.17236 21.5312 1.15322C21.4468 1.12451 21.3674 1.09102 21.283 1.06231C21.0844 3.08623 20.4589 5.11972 19.1978 7.14365C18.3439 6.90441 17.4354 6.76566 16.4871 6.72259C17.634 4.57905 18.195 2.43551 18.3836 0.325467C18.2992 0.311113 18.2148 0.296759 18.1304 0.282405C17.9467 2.40681 17.3758 4.55513 16.2091 6.70824C16.0999 6.70346 15.9956 6.69389 15.8913 6.69389C14.9282 6.69389 14.0097 6.79437 13.131 6.99054C14.3324 4.66518 14.953 2.35896 15.2112 0.100586C15.1268 0.100586 15.0424 0.105372 14.958 0.105372C14.6949 2.39245 14.0544 4.7226 12.8083 7.07666C12.6097 7.12451 12.4161 7.17236 12.2224 7.23456C11.0756 7.59341 10.1522 8.11972 9.46206 8.82786C8.767 9.53121 8.41948 10.3733 8.41948 11.3542C8.41948 11.9523 8.54359 12.4977 8.78686 12.9905C7.81378 15.0862 7.87336 17.7082 8.95566 20.6795L8.00244 21.3015C8.47905 21.8948 9.10957 22.402 9.88406 22.8183C10.1968 23.4403 10.5444 24.0767 10.9316 24.7226C12.4359 27.2106 14.5012 29.7561 16.8744 32.1389C16.9786 32.1293 17.0878 32.1245 17.1921 32.1149C14.7793 29.7082 12.6742 27.1245 11.1451 24.5982C10.8174 24.0575 10.5295 23.5264 10.2564 23.0049C10.5344 23.1389 10.8323 23.2633 11.1451 23.3733C11.8898 23.6413 12.6841 23.8279 13.5182 23.9475C15.097 26.5073 17.2964 29.158 19.873 31.6413C19.9674 31.6173 20.0567 31.5934 20.1511 31.5695C17.5992 29.1197 15.4147 26.5121 13.831 23.981C14.4417 24.0575 15.0622 24.1054 15.7176 24.1054C16.0502 24.1054 16.3729 24.091 16.6907 24.0671C18.2198 26.3015 20.2305 28.5791 22.5093 30.7322C22.5887 30.6987 22.6632 30.6652 22.7377 30.6269C20.4837 28.5025 18.4978 26.2489 16.9736 24.0432C17.8574 23.9666 18.6815 23.8039 19.4411 23.5551C20.8411 25.5264 22.6433 27.5695 24.7335 29.5456C24.803 29.5025 24.8725 29.4546 24.942 29.4068C22.8717 27.4451 21.0745 25.4259 19.6844 23.469C20.1709 23.2968 20.6326 23.091 21.0695 22.847C21.3128 22.7082 21.5263 22.5599 21.7298 22.4068C23.0107 24.2633 24.6987 26.1963 26.6796 28.1054C26.7392 28.0527 26.8037 28.0001 26.8633 27.9427C24.8824 26.0384 23.1994 24.1054 21.9234 22.2537C22.6433 21.6413 23.0802 20.8948 23.2292 20.0145C24.376 22.0384 26.1434 24.2393 28.3577 26.4355C28.4222 26.3637 28.4868 26.292 28.5464 26.2202C26.2725 23.9714 24.4207 21.6843 23.2788 19.5886C23.2738 19.4977 23.2887 19.3972 23.2887 19.292ZM20.4539 9.55035C19.8432 10.1628 19.1581 10.7704 18.3836 11.3685C17.4999 12.048 16.8992 12.8805 16.5665 13.8374C16.5616 13.8326 16.5516 13.8326 16.5467 13.8326C15.7672 13.5503 15.0821 13.2824 14.4913 13.0288C14.7892 12.4977 15.1814 11.9953 15.7076 11.5312C16.9836 10.4068 18.0113 9.27283 18.8304 8.13408C19.3964 8.49771 19.9376 8.96661 20.4539 9.55035ZM18.617 8.00011C17.8077 9.12451 16.7999 10.2489 15.5339 11.359C15.0027 11.8279 14.5807 12.3542 14.258 12.9331C13.692 12.6843 13.2154 12.4499 12.843 12.2298C12.704 12.1484 12.5749 12.0575 12.4558 11.9714C12.5898 11.8087 12.7288 11.6556 12.8678 11.5169C14.2778 10.1054 15.3601 8.68432 16.1843 7.26805C17.0432 7.3159 17.8574 7.55513 18.617 8.00011ZM11.6366 9.44987C11.7657 9.01925 12.0189 8.64126 12.3912 8.30154C12.4458 8.2537 12.4955 8.20585 12.5501 8.158C13.3147 7.54556 14.4019 7.23456 15.8169 7.23456C15.8467 7.23456 15.8765 7.23934 15.9062 7.23934C15.102 8.60776 14.0494 9.97618 12.6891 11.3398C12.5402 11.4929 12.4012 11.646 12.2671 11.8087C11.8352 11.4259 11.587 10.981 11.5373 10.4786C11.5026 10.1149 11.5373 9.77044 11.6366 9.44987ZM12.2522 22.6269C11.2444 22.0145 10.4054 21.1915 9.73016 20.1628L9.15921 20.536C8.14642 17.7274 8.06698 15.2489 8.92587 13.2537C9.04503 13.4499 9.189 13.6365 9.35284 13.8135C9.78973 14.2872 10.2912 14.6939 10.8571 15.048C10.5493 17.2728 11.2444 19.9523 12.9423 22.9858C12.709 22.8805 12.4756 22.7609 12.2522 22.6269ZM19.0588 22.5791C19.029 22.5982 19.0042 22.6221 18.9744 22.6413C18.9347 22.67 18.895 22.6891 18.8553 22.7178C18.2148 23.1293 17.4552 23.3877 16.5814 23.4929C16.4921 23.5025 16.3977 23.5121 16.3034 23.5169C16.0899 23.536 15.8665 23.5456 15.6381 23.5456C14.809 23.5456 14.0296 23.4068 13.3097 23.1389C13.2898 23.1006 13.2601 23.0623 13.2402 23.024C11.3288 19.6652 10.8472 17.1149 11.0855 15.1915C11.2593 15.292 11.438 15.3877 11.6267 15.4786C12.1579 15.7322 12.7983 16.0001 13.5232 16.2872C13.6076 16.3207 13.692 16.3542 13.7813 16.3877C14.1984 16.5503 14.6402 16.713 15.1168 16.8853C15.5935 17.0575 16.0304 17.225 16.4375 17.3877C16.5318 17.4259 16.6261 17.4642 16.7155 17.5025C17.6389 17.8805 18.3687 18.2202 18.9049 18.5264C19.7142 18.9953 20.1461 19.6078 20.1908 20.3685C20.2603 21.2489 19.883 21.9858 19.0588 22.5791Z" fill="#37514B"/>
<path d="M37.1538 23.5125C35.7885 23.5125 34.592 23.168 33.5742 22.4742C33.1572 22.1919 32.7948 21.857 32.4572 21.4934C32.1543 21.168 31.8763 20.8139 31.633 20.4168C31.4841 20.168 31.3401 19.9144 31.211 19.6417C30.8635 18.8905 30.6252 18.0819 30.4763 17.2206C30.4167 16.8666 30.372 16.5077 30.3472 16.1393C30.3373 15.9718 30.3124 15.8092 30.3075 15.6369H32.2238H38.4794H45.3902C45.415 13.8522 45.0427 12.2829 44.2781 10.9288C43.5136 9.5795 42.4362 8.53644 41.0461 7.7996C39.656 7.06276 38.0822 6.69434 36.3197 6.69434C34.5573 6.69434 32.9288 7.03405 31.4345 7.71826C30.9876 7.924 30.5706 8.15845 30.1784 8.41682C29.2599 9.02926 28.4904 9.79003 27.8748 10.7135C27.8152 10.7996 27.7655 10.8953 27.7109 10.9862C27.4577 11.1297 27.1946 11.2733 26.9215 11.412C24.4938 12.6704 23.8484 14.9001 25.0499 17.857C25.8541 19.8427 27.5272 22.1537 29.7812 24.5221C29.8259 24.4503 29.8755 24.3833 29.9153 24.3116C27.706 21.9814 26.0676 19.7135 25.2782 17.7661C24.1115 14.8953 24.7023 12.8283 27.0357 11.6178C27.1896 11.5364 27.3336 11.4599 27.4826 11.3785C26.8669 12.546 26.5542 13.8857 26.5542 15.3977C26.5542 17.1632 27.006 18.7039 27.9095 20.0197C28.6443 21.0962 29.6174 21.9623 30.8089 22.6273C31.077 22.7757 31.3501 22.9192 31.643 23.0484C33.2317 23.7517 34.9991 24.1058 36.9453 24.1058C38.5687 24.1058 40.0581 23.8618 41.4085 23.369C42.7639 22.8762 43.8263 22.1728 44.5909 21.2589L42.7142 20.3211C41.1156 22.4551 39.2588 23.5125 37.1538 23.5125ZM30.4713 13.479C30.5061 13.2637 30.5458 13.0484 30.5954 12.8379C30.7344 12.2446 30.9132 11.6704 31.1415 11.125C31.1564 11.0867 31.1813 11.0532 31.1962 11.0101C31.2259 10.9431 31.2607 10.8809 31.2905 10.814C31.5635 10.2302 31.9011 9.70869 32.2983 9.25414C32.5912 8.91922 32.904 8.60821 33.2615 8.34027C34.1899 7.64649 35.302 7.30199 36.5977 7.30199C38.2857 7.30199 39.6163 7.97663 40.5745 9.32591C41.5376 10.6752 42.0192 12.5364 42.0192 14.9049H38.4744H32.1841H30.3124C30.3323 14.4168 30.3919 13.9431 30.4713 13.479Z" fill="#37514B"/>
<path d="M52.9902 39.545H54.2264V46.8608H58.9231V47.8991H52.9902V39.545V39.545Z" fill="#37514B"/>
<path d="M71.593 46.8656V47.9039H65.3027V39.5498H71.4242V40.5881H66.5439V43.1527H70.893V44.167H66.5439V46.8656H71.593V46.8656Z" fill="#37514B"/>
<path d="M84.5244 43.679H85.7109V46.9374C85.284 47.2819 84.7825 47.5402 84.2116 47.7268C83.6407 47.9086 83.0498 47.9996 82.4293 47.9996C81.5555 47.9996 80.7661 47.813 80.0611 47.4445C79.3611 47.0761 78.81 46.5641 78.4079 45.9182C78.0057 45.2675 77.8071 44.5402 77.8071 43.7268C77.8071 42.9134 78.0057 42.1814 78.4079 41.5307C78.81 40.8799 79.3611 40.368 80.0661 40.0043C80.7711 39.6407 81.5654 39.4541 82.4491 39.4541C83.1442 39.4541 83.7747 39.5642 84.3357 39.7842C84.9017 40.0043 85.3833 40.3249 85.7804 40.746L85.0109 41.4876C84.3158 40.8417 83.4818 40.5211 82.4988 40.5211C81.8385 40.5211 81.2477 40.6598 80.7214 40.9326C80.1951 41.2053 79.788 41.5881 79.4902 42.0809C79.1923 42.5689 79.0433 43.1192 79.0433 43.7316C79.0433 44.3345 79.1923 44.8847 79.4902 45.3728C79.788 45.8608 80.2001 46.2484 80.7214 46.5259C81.2477 46.8034 81.8335 46.9421 82.4839 46.9421C83.2584 46.9421 83.9385 46.7651 84.5144 46.4063V43.679H84.5244Z" fill="#37514B"/>
<path d="M98.5542 45.813H93.9469L92.9937 47.9039H91.7178L95.6448 39.5498H96.8711L100.808 47.9039H99.5074L98.5542 45.813ZM98.1222 44.8608L96.2505 40.7651L94.3789 44.8608H98.1222Z" fill="#37514B"/>
<path d="M107.055 39.5449H108.291V46.8607H112.988V47.899H107.055V39.5449V39.5449Z" fill="#37514B"/>
<path d="M13.7782 16.3827C13.6888 16.3492 13.6044 16.3157 13.52 16.2822C13.5945 17.8947 14.1654 19.7272 15.2428 21.7416C15.5555 22.3253 15.908 22.9186 16.2953 23.5167C16.3896 23.5071 16.479 23.5023 16.5733 23.4928C16.1612 22.866 15.7889 22.2487 15.4662 21.6363C14.6321 20.0717 13.8924 18.2057 13.7782 16.3827Z" fill="#37514B"/>
<path d="M17.5805 20.5358C17.9328 21.244 18.3646 21.976 18.851 22.7176C18.8907 22.6937 18.9354 22.6698 18.9701 22.6411C18.9999 22.6219 19.0247 22.598 19.0545 22.5789C18.578 21.8468 18.1512 21.1291 17.8038 20.4306C17.3571 19.5358 16.9502 18.5263 16.7169 17.4928C16.6276 17.4545 16.5333 17.4162 16.439 17.3779C16.6424 18.3636 17.0196 19.4162 17.5805 20.5358Z" fill="#37514B"/>
<path d="M88.6859 22.8609C88.527 22.5595 88.4227 22.0571 88.3731 21.3537C88.3284 20.6504 88.3036 19.5164 88.3036 17.9518V12.9949C88.3036 11.3872 88.1199 10.1289 87.7475 9.2102C87.3802 8.29633 86.7993 7.6504 86.0099 7.26762C85.2255 6.88963 84.168 6.69824 82.8474 6.69824C81.9438 6.69824 81.0551 6.84657 80.1863 7.14322C80.0572 7.1815 79.9331 7.22934 79.804 7.27719C79.7991 7.27719 79.7941 7.28197 79.7891 7.28197C79.6154 7.34896 79.4416 7.42073 79.2678 7.50207C78.255 7.97097 77.3316 8.63604 76.4926 9.49729C76.3734 9.62169 76.2543 9.75087 76.1401 9.88006C75.8621 8.72217 75.3259 7.8992 74.5266 7.42073C73.7272 6.93748 72.6449 6.69824 71.2747 6.69824C69.9342 6.69824 68.6583 6.97097 67.4519 7.52121C66.2504 8.06666 65.183 8.8992 64.2546 10.014L64.2298 10.0236C63.9865 9.2102 63.6191 8.57384 63.1276 8.10494C62.6212 7.62169 61.9708 7.26762 61.1666 7.03317C60.407 6.80829 59.5133 6.69824 58.4906 6.69824C56.6338 6.69824 54.8266 7.06188 53.0691 7.78915C51.3067 8.51164 50.0903 9.52599 49.4201 10.8179L51.1925 11.5882C51.6542 10.3155 52.4436 9.29154 53.5557 8.50685C54.6678 7.72695 55.904 7.33461 57.2742 7.33461C58.2473 7.33461 58.992 7.54992 59.5133 7.97097C60.0346 8.39681 60.3871 8.99011 60.5758 9.74609C60.7495 10.4734 60.8538 11.4064 60.8836 12.5451V12.6982C60.3275 13.0954 59.697 13.4207 58.992 13.6647C58.287 13.9136 57.2047 14.2485 55.7451 14.6695C54.1663 15.0954 52.9053 15.4925 51.9521 15.8609C51.0038 16.2293 50.1995 16.7413 49.5392 17.4016C48.8789 18.0571 48.5513 18.8896 48.5513 19.8944C48.5513 21.1911 49.0477 22.2198 50.0456 22.9758C51.0386 23.7365 52.3244 24.1145 53.9032 24.1145C55.2933 24.1145 56.5444 23.8466 57.6565 23.3107C58.7537 22.7796 59.8311 21.9805 60.8836 20.904V23.7796H60.8885H62.0701H64.6021V18.1767V12.5691V11.1193C65.1135 10.1145 65.8483 9.30111 66.8114 8.67432C67.7696 8.05231 68.703 7.73652 69.6065 7.73652C70.5349 7.73652 71.225 7.9614 71.6768 8.40638C72.1286 8.85614 72.4166 9.47336 72.5456 10.2676C72.6747 11.0571 72.7343 12.1241 72.7343 13.4638V23.7796H76.4529V13.7317C76.4529 12.7939 76.4181 11.9566 76.3486 11.2198C76.6018 10.7174 76.9195 10.258 77.2969 9.84178C77.6742 9.42551 78.1111 9.05231 78.6075 8.72695C79.104 8.39681 79.5955 8.148 80.0771 7.98532C80.1962 7.94226 80.3154 7.90877 80.4345 7.87528C80.792 7.78437 81.1445 7.73652 81.492 7.73652C82.3956 7.73652 83.0758 7.9614 83.5275 8.40638C83.9793 8.85614 84.2673 9.47336 84.3964 10.2676C84.5205 11.0571 84.585 12.1241 84.585 13.4638V18.3537C84.585 19.9183 84.6099 21.038 84.6545 21.7222C84.7042 22.4016 84.8084 22.8896 84.9673 23.1767C85.1311 23.4686 85.3992 23.6695 85.7666 23.7796H89.4852V23.5116C89.1178 23.3777 88.8497 23.1624 88.6859 22.8609ZM60.8836 19.8992C60.0495 20.9518 59.1956 21.7365 58.3168 22.2724C57.4331 22.8083 56.4749 23.0762 55.4274 23.0762C54.4593 23.0762 53.6848 22.7796 53.1188 22.1911C52.5528 21.5978 52.2698 20.8131 52.2698 19.8274C52.2698 18.7796 52.4932 17.9423 52.945 17.3155C53.3968 16.6935 53.9578 16.2102 54.633 15.8753C55.3033 15.5403 56.2168 15.1958 57.3785 14.837C58.9225 14.3681 60.0942 13.8896 60.8836 13.4016V19.8992V19.8992Z" fill="#37514B"/>
<path d="M93.5175 0.521531C93.6317 0.665072 93.726 0.832536 93.7955 1.02392C93.865 1.21531 93.8998 1.54067 93.8998 2.00957V23.7799H97.6184V0H93.3438C93.3437 0.200957 93.4033 0.373206 93.5175 0.521531Z" fill="#37514B"/>
<path d="M119.688 10.9376C118.923 9.58829 117.846 8.54523 116.456 7.80839C115.066 7.07154 113.492 6.70312 111.729 6.70312C109.967 6.70312 108.343 7.04284 106.849 7.72705C105.355 8.40647 104.168 9.40647 103.284 10.727C102.406 12.0428 101.964 13.6074 101.964 15.416C101.964 17.1816 102.416 18.7223 103.319 20.038C104.223 21.3538 105.469 22.3634 107.058 23.0668C108.646 23.7701 110.409 24.1242 112.355 24.1242C113.978 24.1242 115.468 23.8802 116.823 23.3873C118.179 22.8945 119.241 22.1912 120.001 21.2773L118.124 20.3395C116.525 22.4591 114.669 23.5213 112.563 23.5213C111.193 23.5213 110.002 23.1768 108.984 22.483C107.966 21.7892 107.177 20.8467 106.621 19.6505C106.065 18.4543 105.762 17.1194 105.717 15.6505H120.8C120.825 13.8562 120.452 12.2869 119.688 10.9376ZM105.717 14.9041C105.787 13.5404 106.065 12.2821 106.551 11.1194C107.038 9.95671 107.743 9.03327 108.671 8.33949C109.6 7.64571 110.712 7.30121 112.007 7.30121C113.7 7.30121 115.026 7.97585 115.989 9.32513C116.952 10.6744 117.429 12.5357 117.429 14.9041H105.717Z" fill="#37514B"/>
<path d="M136.056 15.2389C135.152 14.8131 133.98 14.3442 132.546 13.8322C130.877 13.2293 129.641 12.6935 128.842 12.2246C128.043 11.7557 127.611 11.1767 127.541 10.4829C127.447 9.54513 127.784 8.77001 128.549 8.15757C129.314 7.54513 130.401 7.23413 131.816 7.23413C133.831 7.23413 135.594 8.27241 137.098 10.349L138.662 9.2102C138.037 8.40638 137.108 7.78915 135.882 7.35374C134.656 6.91834 133.32 6.69824 131.885 6.69824C130.59 6.69824 129.368 6.87528 128.221 7.23413C127.075 7.59298 126.151 8.1193 125.461 8.82743C124.766 9.53078 124.418 10.3729 124.418 11.3537C124.418 12.3155 124.731 13.1336 125.357 13.8179C125.982 14.4973 126.742 15.0523 127.636 15.4781C128.524 15.904 129.691 16.3729 131.131 16.8848C132.844 17.5116 134.105 18.0571 134.919 18.526C135.728 18.9949 136.16 19.6073 136.205 20.3681C136.274 21.282 135.867 22.0427 134.988 22.6456C134.105 23.2485 132.997 23.5499 131.652 23.5499C130.401 23.5499 129.274 23.2437 128.266 22.6313C127.258 22.0188 126.419 21.1958 125.744 20.1671L124.006 21.3059C124.726 22.2006 125.774 22.8896 127.154 23.3825C128.534 23.8753 130.053 24.1193 131.726 24.1193C133.812 24.1193 135.594 23.6982 137.078 22.8657C138.563 22.0332 139.303 20.837 139.303 19.2963C139.303 18.3585 138.99 17.5547 138.364 16.8848C137.739 16.215 136.959 15.6647 136.056 15.2389Z" fill="#37514B"/>
<path d="M157.047 16.8801C156.421 16.2102 155.656 15.6647 154.753 15.2389C153.849 14.8131 152.678 14.3442 151.243 13.8322C149.575 13.2293 148.339 12.6935 147.539 12.2246C146.74 11.7557 146.308 11.1767 146.238 10.4829C146.144 9.54513 146.482 8.77001 147.246 8.15757C148.011 7.54513 149.098 7.23413 150.513 7.23413C152.529 7.23413 154.291 8.27241 155.796 10.349L157.359 9.2102C156.734 8.40638 155.805 7.78915 154.579 7.35374C153.353 6.91834 152.017 6.69824 150.583 6.69824C149.287 6.69824 148.065 6.87528 146.919 7.23413C145.772 7.59298 144.848 8.1193 144.158 8.82743C143.463 9.53078 143.116 10.3729 143.116 11.3537C143.116 12.3155 143.428 13.1336 144.054 13.8179C144.68 14.4973 145.439 15.0523 146.333 15.4781C147.221 15.904 148.388 16.3729 149.828 16.8848C151.541 17.5116 152.802 18.0571 153.616 18.526C154.425 18.9949 154.857 19.6073 154.902 20.3681C154.971 21.282 154.564 22.0427 153.686 22.6456C152.802 23.2485 151.695 23.5499 150.349 23.5499C149.098 23.5499 147.971 23.2437 146.963 22.6313C145.955 22.0188 145.116 21.1958 144.441 20.1671L142.704 21.3059C143.423 22.2006 144.471 22.8896 145.851 23.3825C147.231 23.8753 148.751 24.1193 150.424 24.1193C152.509 24.1193 154.291 23.6982 155.776 22.8657C157.26 22.0332 158 20.837 158 19.2963C157.985 18.3537 157.672 17.5499 157.047 16.8801Z" fill="#37514B"/>
</svg>
