<svg width="49" height="48" viewBox="0 0 49 48" xmlns="http://www.w3.org/2000/svg">
<path fill-rule="evenodd" clip-rule="evenodd" d="M12.0529 22.9458C18.6999 20.1169 23.1324 18.2519 25.3501 17.3509C31.6823 14.7781 32.9981 14.3312 33.8557 14.3164C34.0443 14.3132 34.4661 14.3589 34.7393 14.5754C34.97 14.7582 35.0334 15.0052 35.0638 15.1786C35.0942 15.3519 35.132 15.7468 35.1019 16.0554C34.7588 19.5773 33.274 28.124 32.5186 32.0686C32.199 33.7376 31.5696 34.2973 30.9604 34.3521C29.6362 34.4711 28.6308 33.4973 27.3483 32.6761C25.3415 31.3911 24.2077 30.5911 22.2598 29.3372C20.0086 27.8881 21.4679 27.0916 22.7509 25.7899C23.0866 25.4493 28.9207 20.2657 29.0337 19.7955C29.0478 19.7366 29.0609 19.5174 28.9276 19.4017C28.7943 19.2859 28.5975 19.3255 28.4555 19.357C28.2542 19.4016 25.0483 21.4715 18.8377 25.5667C17.9277 26.177 17.1035 26.4744 16.365 26.4589C15.5509 26.4417 13.9848 26.0092 12.8206 25.6395C11.3927 25.1861 10.2578 24.9464 10.3566 24.1764C10.4081 23.7753 10.9735 23.3651 12.0529 22.9458Z"/>
</svg>
