<svg width="32" height="32" viewBox="0 0 32 32" fill="none" xmlns="http://www.w3.org/2000/svg">
<mask id="mask0_302_5806" style="mask-type:alpha" maskUnits="userSpaceOnUse" x="0" y="0" width="32" height="32">
<circle cx="16" cy="16" r="16" fill="#D9D9D9"/>
</mask>
<g mask="url(#mask0_302_5806)">
<path d="M5.99995 3C5.16662 5.16667 3.50028 8.5 2.5 11C1.49975 13.4999 -1.00005 16 4.49995 27.5" stroke="white" stroke-width="0.7"/>
<path d="M9.94104 2C9.10771 4.16667 6.50041 8 4.50004 13C3.49987 15.5 2.5 19 10.4998 32" stroke="white" stroke-width="0.7"/>
<path d="M13 0C12.5 6.5 8.80035 8.5 7.00002 13C5.99985 15.5 5.66668 19 13.6665 32" stroke="white" stroke-width="0.7"/>
<path d="M16.515 0C16.015 6.5 11.8003 9.5 9.99999 14C8.99982 16.5 8.5 21 18.4998 32" stroke="white" stroke-width="0.7"/>
<path d="M19.5 0C19 6.5 14.8002 9.5 12.9999 14C11.9997 16.5 11.4998 21 22.0037 32" stroke="white" stroke-width="0.7"/>
<path d="M22.0868 1C21.6094 7.09375 19.4999 8 15.5 13C13.919 14.9762 14 20 24.0001 31" stroke="white" stroke-width="0.7"/>
<path d="M25.3426 1C24.8652 7.09375 22.4999 8 18.5 13C16.919 14.9762 15.9997 18.5 25.9998 29.5" stroke="white" stroke-width="0.7"/>
<path d="M29 1.5C28.5226 7.59375 27 8 22 12C20.0238 13.581 18 17 28 28" stroke="white" stroke-width="0.7"/>
<path d="M32 2C31.5017 7.74882 29.9125 8.13208 24.6938 11.9057C22.6311 13.3972 20.5188 16.6226 30.9563 27" stroke="white" stroke-width="0.7"/>
<path d="M36 3C35.5017 8.51887 33.9125 8.88679 28.6938 12.5094C26.6311 13.9413 24.5188 17.0377 34.9563 27" stroke="white" stroke-width="0.7"/>
<path d="M35 8C34.7232 11.6792 33.8403 11.9245 30.941 14.3396C29.7951 15.2942 28.6215 17.3585 34.4202 24" stroke="white" stroke-width="0.7"/>
</g>
</svg>
